<?xml version="1.0" encoding="utf-8"?>
<!-- Generator: Adobe Illustrator 26.0.2, SVG Export Plug-In . SVG Version: 6.00 Build 0)  -->
<svg version="1.1" id="Layer_1" xmlns="http://www.w3.org/2000/svg" xmlns:xlink="http://www.w3.org/1999/xlink" x="0px" y="0px"
	 viewBox="0 0 548 222.6" style="enable-background:new 0 0 548 222.6;" xml:space="preserve">
<style type="text/css">
	.st0{fill:#737373;}
	.st1{fill:#D71920;}
	.st2{fill:#008037;}
	.st3{clip-path:url(#SVGID_00000092458128001875842210000006244048820715732136_);}
	.st4{clip-path:url(#SVGID_00000144319781171913838150000008029812084788586925_);}
	.st5{clip-path:url(#SVGID_00000076562450369960907330000011187814932528651943_);}
	.st6{fill:#FFFFFF;}
</style>
<g>
	<g transform="translate(157.428862, 222.486029)">
		<g id="glyph-0-6">
		</g>
	</g>
</g>
<g>
	<g transform="translate(356.166021, 222.486029)">
		<g id="glyph-0-6_00000043427178550795002310000008910097011550905782_">
		</g>
	</g>
</g>
<g>
	<g>
		<g transform="translate(4.894274, 222.486029)">
			<g id="glyph-0-1">
				<path class="st0" d="M10.8-11.7c1.5,0.3,2.6,1,3.4,1.9c0.8,0.9,1.2,2.2,1.2,3.7c0,1.9-0.7,3.4-2.1,4.5c-1.4,1-3.5,1.6-6.3,1.6
					H-3.3v-22.5h9.7c2.5,0,4.4,0.5,5.8,1.5c1.4,1,2.1,2.4,2.1,4.3c0,1.2-0.3,2.3-0.9,3.2C12.7-12.8,11.9-12.1,10.8-11.7z M-1-20.6
					v8.2h7.2c1.8,0,3.2-0.3,4.2-1c1-0.7,1.5-1.7,1.5-3c0-1.3-0.5-2.3-1.5-3c-1-0.7-2.4-1-4.2-1H-1z M7-2.1c2,0,3.5-0.3,4.6-1
					s1.5-1.8,1.5-3.2c0-2.8-2-4.2-6.1-4.2H-1v8.5H7z"/>
			</g>
		</g>
	</g>
	<g>
		<g transform="translate(31.745688, 222.486029)">
			<g id="glyph-0-2">
				<path class="st0" d="M12.6-2.2v2.1H-3.3v-22.5h15.4v2.1H-1v8h11.6v2H-1v8.3H12.6z"/>
			</g>
		</g>
	</g>
	<g>
		<g transform="translate(55.867236, 222.486029)">
			<g id="glyph-0-3">
				<path class="st0" d="M1-20.5h-7.9v-2.1h18.2v2.1H3.4v20.4H1V-20.5z"/>
			</g>
		</g>
	</g>
	<g>
		<g transform="translate(76.93774, 222.486029)">
			<g id="glyph-0-3_00000168115713032988712380000004732277193237518500_">
				<path class="st0" d="M1-20.5h-7.9v-2.1h18.2v2.1H3.4v20.4H1V-20.5z"/>
			</g>
		</g>
	</g>
	<g>
		<g transform="translate(98.008245, 222.486029)">
			<g id="glyph-0-2_00000176734357189583818940000017472982949526913190_">
				<path class="st0" d="M12.6-2.2v2.1H-3.3v-22.5h15.4v2.1H-1v8h11.6v2H-1v8.3H12.6z"/>
			</g>
		</g>
	</g>
	<g>
		<g transform="translate(122.129788, 222.486029)">
			<g id="glyph-0-4">
				<path class="st0" d="M12-0.1L6.9-7.3C6.3-7.3,5.7-7.2,5.1-7.2h-6v7.1h-2.4v-22.5h8.4c2.9,0,5.1,0.7,6.7,2.1
					c1.6,1.4,2.5,3.2,2.5,5.7c0,1.8-0.4,3.2-1.3,4.5c-0.9,1.2-2.2,2.1-3.8,2.6l5.5,7.7H12z M5-9.3c2.2,0,3.9-0.5,5.1-1.5
					c1.2-1,1.8-2.4,1.8-4.2c0-1.8-0.6-3.2-1.8-4.2c-1.2-1-2.9-1.5-5.1-1.5h-6v11.3H5z"/>
			</g>
		</g>
	</g>
	<g>
		<g transform="translate(147.985579, 222.486029)">
			<g id="glyph-0-5">
				<path class="st0" d="M-3.6,0.1c-0.5,0-0.9-0.2-1.2-0.5c-0.3-0.3-0.5-0.8-0.5-1.2c0-0.5,0.2-0.9,0.5-1.2c0.3-0.3,0.7-0.5,1.2-0.5
					s0.9,0.2,1.2,0.5C-2-2.6-1.9-2.2-1.9-1.7c0,0.5-0.2,0.9-0.5,1.2S-3.1,0.1-3.6,0.1z"/>
			</g>
		</g>
	</g>
	<g>
		<g transform="translate(168.479163, 222.486029)">
			<g id="glyph-0-7">
				<path class="st1" d="M2.9,0.1c-1.7,0-3.3-0.3-4.8-0.8C-3.5-1.2-4.7-2-5.5-2.8l0.9-1.8c0.8,0.8,1.9,1.5,3.2,2
					C0-2.2,1.4-1.9,2.9-1.9c2,0,3.5-0.4,4.5-1.1c1-0.7,1.5-1.7,1.5-2.9c0-0.9-0.3-1.6-0.8-2.2c-0.5-0.5-1.2-1-2-1.2
					c-0.8-0.3-1.9-0.6-3.3-1c-1.7-0.4-3-0.8-4-1.2c-1-0.4-1.9-1-2.6-1.8c-0.7-0.8-1.1-1.9-1.1-3.3c0-1.1,0.3-2.2,0.9-3.1
					c0.6-0.9,1.5-1.7,2.8-2.2c1.2-0.6,2.8-0.8,4.6-0.8c1.3,0,2.6,0.2,3.8,0.5c1.2,0.4,2.3,0.8,3.2,1.5l-0.8,1.9
					c-0.9-0.6-1.9-1.1-3-1.4c-1.1-0.3-2.1-0.5-3.2-0.5c-2,0-3.5,0.4-4.5,1.1c-1,0.8-1.5,1.7-1.5,3c0,0.9,0.3,1.6,0.8,2.2
					c0.6,0.5,1.2,1,2.1,1.2c0.8,0.3,1.9,0.6,3.3,0.9c1.6,0.4,3,0.8,4,1.2c1,0.4,1.9,1,2.6,1.8c0.7,0.8,1.1,1.9,1.1,3.3
					c0,1.1-0.3,2.2-0.9,3.1C9.7-2,8.8-1.3,7.5-0.7C6.3-0.2,4.7,0.1,2.9,0.1z"/>
			</g>
		</g>
	</g>
	<g>
		<g transform="translate(190.86644, 222.486029)">
			<g id="glyph-0-8">
				<path class="st1" d="M20-22.6v22.5h-2.3v-18L8.9-3H7.8L-1-18v17.9h-2.3v-22.5h2L8.4-5.9l9.7-16.7H20z"/>
			</g>
		</g>
	</g>
	<g>
		<g transform="translate(224.173173, 222.486029)">
			<g id="glyph-0-9">
				<path class="st1" d="M10.8-6.1H-1.8l-2.7,6h-2.5L3.3-22.6h2.4L16-0.1h-2.5L10.8-6.1z M9.9-8L4.5-20.1L-0.9-8H9.9z"/>
			</g>
		</g>
	</g>
	<g>
		<g transform="translate(249.836292, 222.486029)">
			<g id="glyph-0-4_00000025406283912204602810000000537163880114398864_">
				<path class="st1" d="M12-0.1L6.9-7.3C6.3-7.3,5.7-7.2,5.1-7.2h-6v7.1h-2.4v-22.5h8.4c2.9,0,5.1,0.7,6.7,2.1
					c1.6,1.4,2.5,3.2,2.5,5.7c0,1.8-0.4,3.2-1.3,4.5c-0.9,1.2-2.2,2.1-3.8,2.6l5.5,7.7H12z M5-9.3c2.2,0,3.9-0.5,5.1-1.5
					c1.2-1,1.8-2.4,1.8-4.2c0-1.8-0.6-3.2-1.8-4.2c-1.2-1-2.9-1.5-5.1-1.5h-6v11.3H5z"/>
			</g>
		</g>
	</g>
	<g>
		<g transform="translate(275.692088, 222.486029)">
			<g id="glyph-0-3_00000017511640843591723480000010865673342342146714_">
				<path class="st1" d="M1-20.5h-7.9v-2.1h18.2v2.1H3.4v20.4H1V-20.5z"/>
			</g>
		</g>
	</g>
	<g>
		<g transform="translate(296.762587, 222.486029)">
			<g id="glyph-0-2_00000047017778742519177310000007803531611289708715_">
				<path class="st1" d="M12.6-2.2v2.1H-3.3v-22.5h15.4v2.1H-1v8h11.6v2H-1v8.3H12.6z"/>
			</g>
		</g>
	</g>
	<g>
		<g transform="translate(320.88413, 222.486029)">
			<g id="glyph-0-4_00000062881837839943922800000005643222979963099290_">
				<path class="st1" d="M12-0.1L6.9-7.3C6.3-7.3,5.7-7.2,5.1-7.2h-6v7.1h-2.4v-22.5h8.4c2.9,0,5.1,0.7,6.8,2.1
					c1.6,1.4,2.5,3.2,2.5,5.7c0,1.8-0.4,3.2-1.3,4.5c-0.9,1.2-2.2,2.1-3.8,2.6l5.5,7.7H12z M5-9.3c2.2,0,3.9-0.5,5.1-1.5
					c1.2-1,1.8-2.4,1.8-4.2c0-1.8-0.6-3.2-1.8-4.2c-1.2-1-2.9-1.5-5.1-1.5h-6v11.3H5z"/>
			</g>
		</g>
	</g>
	<g>
		<g transform="translate(346.739922, 222.486029)">
			<g id="glyph-0-5_00000093156458558939638920000007109324645403760267_">
				<path class="st1" d="M-3.6,0.1c-0.5,0-0.9-0.2-1.2-0.5c-0.3-0.3-0.5-0.8-0.5-1.2c0-0.5,0.2-0.9,0.5-1.2c0.3-0.3,0.7-0.5,1.2-0.5
					s0.9,0.2,1.2,0.5C-2-2.6-1.9-2.2-1.9-1.7c0,0.5-0.2,0.9-0.5,1.2S-3.1,0.1-3.6,0.1z"/>
			</g>
		</g>
	</g>
	<g>
		<g transform="translate(367.198111, 222.486029)">
			<g id="glyph-0-10">
				<path class="st2" d="M12.5-11.4h2.3v8.6c-1.1,0.9-2.3,1.6-3.7,2.1C9.6-0.2,8.1,0.1,6.5,0.1c-2.2,0-4.3-0.5-6.1-1.5
					c-1.8-1-3.2-2.4-4.2-4.1c-1-1.8-1.5-3.7-1.5-5.9c0-2.2,0.5-4.1,1.5-5.9c1-1.8,2.4-3.1,4.2-4.1c1.8-1,3.8-1.5,6.1-1.5
					c1.7,0,3.3,0.3,4.7,0.8c1.4,0.5,2.6,1.4,3.6,2.4L13.4-18c-1.8-1.8-4-2.6-6.8-2.6c-1.8,0-3.5,0.4-4.9,1.2
					c-1.5,0.8-2.6,1.9-3.5,3.3c-0.8,1.4-1.3,3-1.3,4.8C-3-9.6-2.6-8-1.7-6.6c0.8,1.4,2,2.5,3.4,3.3C3.2-2.4,4.8-2,6.6-2
					c2.3,0,4.3-0.6,5.9-1.7V-11.4z"/>
			</g>
		</g>
	</g>
	<g>
		<g transform="translate(394.659719, 222.486029)">
			<g id="glyph-0-4_00000168824155726456638950000015686480291708177552_">
				<path class="st2" d="M12-0.1L6.9-7.3C6.3-7.3,5.7-7.2,5.1-7.2h-6v7.1h-2.4v-22.5h8.4c2.9,0,5.1,0.7,6.8,2.1
					c1.6,1.4,2.5,3.2,2.5,5.7c0,1.8-0.4,3.2-1.3,4.5c-0.9,1.2-2.2,2.1-3.8,2.6l5.5,7.7H12z M5-9.3c2.2,0,3.9-0.5,5.1-1.5
					c1.2-1,1.8-2.4,1.8-4.2c0-1.8-0.6-3.2-1.8-4.2c-1.2-1-2.9-1.5-5.1-1.5h-6v11.3H5z"/>
			</g>
		</g>
	</g>
	<g>
		<g transform="translate(420.515515, 222.486029)">
			<g id="glyph-0-2_00000002354770744776191420000012674469633427499965_">
				<path class="st2" d="M12.6-2.2v2.1H-3.3v-22.5h15.4v2.1H-1v8h11.6v2H-1v8.3H12.6z"/>
			</g>
		</g>
	</g>
	<g>
		<g transform="translate(444.637064, 222.486029)">
			<g id="glyph-0-2_00000003791589746008806540000012510337763863870888_">
				<path class="st2" d="M12.6-2.2v2.1H-3.3v-22.5h15.4v2.1H-1v8h11.6v2H-1v8.3H12.6z"/>
			</g>
		</g>
	</g>
	<g>
		<g transform="translate(468.758613, 222.486029)">
			<g id="glyph-0-11">
				<path class="st2" d="M15.5-22.6v22.5h-2L-1-18.4v18.2h-2.4v-22.5h2L13.1-4.4v-18.2H15.5z"/>
			</g>
		</g>
	</g>
	<g>
		<g transform="translate(497.504869, 222.486029)">
			<g id="glyph-0-2_00000111163707215797741400000013001719564306350723_">
				<path class="st2" d="M12.6-2.2v2.1H-3.3v-22.5h15.4v2.1H-1v8h11.6v2H-1v8.3H12.6z"/>
			</g>
		</g>
	</g>
	<g>
		<g transform="translate(521.626412, 222.486029)">
			<g id="glyph-0-4_00000044882033823225087210000016993890516111603080_">
				<path class="st2" d="M12-0.1L6.9-7.3C6.3-7.3,5.7-7.2,5.1-7.2h-6v7.1h-2.4v-22.5h8.4c2.9,0,5.1,0.7,6.8,2.1
					c1.6,1.4,2.5,3.2,2.5,5.7c0,1.8-0.4,3.2-1.3,4.5c-0.9,1.2-2.2,2.1-3.8,2.6l5.5,7.7H12z M5-9.3c2.2,0,3.9-0.5,5.1-1.5
					c1.2-1,1.8-2.4,1.8-4.2c0-1.8-0.6-3.2-1.8-4.2c-1.2-1-2.9-1.5-5.1-1.5h-6v11.3H5z"/>
			</g>
		</g>
	</g>
	<g>
		<g transform="translate(547.482203, 222.486029)">
			<g id="glyph-0-5_00000074432786055558515780000015370712541667977398_">
				<path class="st2" d="M-3.6,0.1c-0.5,0-0.9-0.2-1.2-0.5c-0.3-0.3-0.5-0.8-0.5-1.2c0-0.5,0.2-0.9,0.5-1.2c0.3-0.3,0.7-0.5,1.2-0.5
					s0.9,0.2,1.2,0.5C-2-2.6-1.9-2.2-1.9-1.7c0,0.5-0.2,0.9-0.5,1.2S-3.1,0.1-3.6,0.1z"/>
			</g>
		</g>
	</g>
	<g>
		<defs>
			<rect id="SVGID_1_" x="0" width="182" height="110.9"/>
		</defs>
		<clipPath id="SVGID_00000086659761617747438900000010509210659915227814_">
			<use xlink:href="#SVGID_1_"  style="overflow:visible;"/>
		</clipPath>
		<g style="clip-path:url(#SVGID_00000086659761617747438900000010509210659915227814_);">
			<path class="st0" d="M0.7,110.5V94.7h62.9c10.5,0,15.7-5.3,15.7-15.8V31.6c0-21,13.1-31.6,39.3-31.6h62.9v15.8h-62.9
				c-10.5,0-15.7,5.3-15.7,15.8v47.3c0,21-13.1,31.6-39.3,31.6H0.7z"/>
		</g>
	</g>
	<g>
		<defs>
			<rect id="SVGID_00000016038702477988839110000013634442698930649751_" x="197" width="166" height="110.9"/>
		</defs>
		<clipPath id="SVGID_00000079459625417757675760000009603804583090628523_">
			<use xlink:href="#SVGID_00000016038702477988839110000013634442698930649751_"  style="overflow:visible;"/>
		</clipPath>
		<g style="clip-path:url(#SVGID_00000079459625417757675760000009603804583090628523_);">
			<path class="st0" d="M207.3,55.2c-6.6-5.3-9.8-13.2-9.8-23.7c0-21,13.1-31.6,39.3-31.6h125.7v15.8H236.7
				c-10.5,0-15.7,5.3-15.7,15.8s5.2,15.8,15.7,15.8h125.7v15.8H236.7c-10.5,0-15.7,5.3-15.7,15.8s5.2,15.8,15.7,15.8h125.7v15.8
				H236.7c-26.2,0-39.3-10.5-39.3-31.6C197.4,68.4,200.7,60.5,207.3,55.2"/>
		</g>
	</g>
	<g>
		<defs>
			<rect id="SVGID_00000174561151778339658720000004602705113089043896_" x="382" width="166" height="110.9"/>
		</defs>
		<clipPath id="SVGID_00000111176334567047824520000001490093603385415851_">
			<use xlink:href="#SVGID_00000174561151778339658720000004602705113089043896_"  style="overflow:visible;"/>
		</clipPath>
		<g style="clip-path:url(#SVGID_00000111176334567047824520000001490093603385415851_);">
			<path class="st0" d="M392.8,55.2c-6.6-5.3-9.8-13.2-9.8-23.7c0-21,13.1-31.6,39.3-31.6H548v15.8H422.3
				c-10.5,0-15.7,5.3-15.7,15.8c0,10.5,5.2,15.8,15.7,15.8H548v15.8H422.3c-10.5,0-15.7,5.3-15.7,15.8v31.6H383V78.9
				C383,68.4,386.2,60.5,392.8,55.2"/>
		</g>
	</g>
	<path class="st1" d="M191.7,126.6h355.7v55.9H191.7V126.6z"/>
	<path class="st0" d="M0.8,182.5h193.3v-55.9H0.8V182.5z"/>
	<path class="st6" d="M245.7,144.7c3,0,5.4,2.1,5.4,4.6c0,2.5-2.4,4.6-5.4,4.6H236v-9.2H245.7z M495.8,144.7c3,0,5.4,2.1,5.4,4.6
		c0,2.5-2.5,4.6-5.4,4.6h-9.3v-9.2H495.8z M273.8,144.7c6.9,0,12.5,4.7,12.5,10.5c0,5.8-5.6,10.6-12.5,10.6
		c-6.9,0-12.5-4.8-12.5-10.6C261.3,149.4,266.9,144.7,273.8,144.7z M428.6,144.7c6.9,0,12.5,4.7,12.5,10.5c0,5.8-5.6,10.6-12.5,10.6
		c-6.9,0-12.5-4.8-12.5-10.6C416.1,149.4,421.7,144.7,428.6,144.7z M463.8,144.7c6.9,0,12.5,4.7,12.5,10.5c0,5.8-5.6,10.6-12.5,10.6
		s-12.5-4.8-12.5-10.6C451.3,149.4,456.9,144.7,463.8,144.7z M81.5,144.7c7,0,12.6,4.8,12.6,10.6c0,5.9-5.7,10.6-12.6,10.6h-6.8
		v-21.2H81.5z M273.8,141.9c-8.7,0-15.8,5.9-15.8,13.3c0,7.3,7.1,13.3,15.8,13.3c8.7,0,15.8-5.9,15.8-13.3
		C289.6,147.9,282.5,141.9,273.8,141.9z M428.6,141.9c-8.7,0-15.8,5.9-15.8,13.3c0,7.3,7.1,13.3,15.8,13.3c8.7,0,15.8-5.9,15.8-13.3
		C444.4,147.9,437.3,141.9,428.6,141.9z M463.8,141.9c-8.7,0-15.8,5.9-15.8,13.3c0,7.3,7.1,13.3,15.8,13.3c8.7,0,15.8-5.9,15.8-13.3
		C479.6,147.9,472.5,141.9,463.8,141.9z M483.2,141.9v26.7h3.3v-11.3l15.1,11.3h4.9l-16.1-12h5.3c4.8,0,8.7-3.3,8.7-7.4
		c0-4-3.9-7.4-8.7-7.4L483.2,141.9z M392.6,141.9v26.7h21.1v-2.8h-17.7v-24L392.6,141.9z M29,141.9c-5.7,0-10.3,3.3-10.3,7.4
		c0,2.7,1.7,4.8,5.2,6.5c1.3,0.7,3.8,0.9,5.6,0.9h1.2c3.7,0,6.8,2.1,6.8,4.6c0,2.5-3.1,4.6-6.8,4.6h-2.7c-3.7,0-6.9-2.1-6.8-4.6
		l0-1.2h-3.5l0,1.1v0.1c0,4.1,4.6,7.4,10.3,7.4h2.7c5.7,0,10.3-3.3,10.3-7.4c0-3.6-3.5-6.8-8.3-7.3h-0.1c0,0-0.8-0.1-2.3-0.1v0h-1.6
		c-3.6-0.1-6.4-2.1-6.4-4.6c0-2.5,3-4.6,6.8-4.6h0.8c3.6,0,6.6,1.9,6.8,4.3l0.1,1h3.5l-0.1-1.1c-0.3-3.9-4.8-7-10.3-7H29z
		 M521.4,141.9c-5.7,0-10.3,3.3-10.3,7.4c0,2.7,1.7,4.8,5.2,6.5c1.3,0.7,3.8,0.9,5.6,0.9h1.2c3.7,0,6.8,2.1,6.8,4.6
		c0,2.5-3.1,4.6-6.8,4.6h-2.7c-3.7,0-6.9-2.1-6.8-4.6l0-1.2h-3.5l0,1.1v0.1c0,4.1,4.6,7.4,10.3,7.4h2.7c5.7,0,10.3-3.3,10.3-7.4
		c0-3.6-3.5-6.8-8.3-7.3H525c0,0-0.8-0.1-2.3-0.1v0h-1.6c-3.6-0.1-6.4-2.1-6.4-4.6c0-2.5,3-4.6,6.8-4.6h0.8c3.6,0,6.6,1.9,6.8,4.3
		l0.1,1h3.5l-0.1-1.1c-0.3-3.9-4.8-7-10.3-7H521.4z M40.2,141.9l12.1,13.8v12.9h3.3v-12.9l12.1-13.8h-4.1l-9.6,11l-9.6-11
		L40.2,141.9z M155.1,141.9l12.1,13.8v12.9h3.3v-12.9l12.1-13.8h-4.1l-9.6,11l-9.6-11L155.1,141.9z M320.8,141.9l12.1,13.8v12.9h3.3
		v-12.9l12.1-13.8h-4.1l-9.6,11l-9.6-11L320.8,141.9z M100.9,141.9v26.7h3.3v-21.4l20,21.4h2.7v-26.8h-3.3v21.4l-20-21.4
		L100.9,141.9z M130.5,141.9v26.7h21v-2.8h-17.6v-9.2h12.9v-2.8h-12.9v-9.2h17.6v-2.8L130.5,141.9z M208.1,141.9v26.7h21v-2.8h-17.6
		v-9.2h12.9v-2.8h-12.9v-9.2h17.6v-2.8L208.1,141.9z M232.6,141.9v26.7h3.3v-12h9.7c4.9,0,8.8-3.3,8.8-7.4c0-4-3.9-7.4-8.8-7.4
		L232.6,141.9z M289.7,141.9l11.7,13.4l-11.7,13.4h4.1l9.6-11l9.6,11h4.1l-11.7-13.4l11.7-13.4H313l-9.6,11l-9.6-11L289.7,141.9z
		 M367.2,141.9v26.7h3.3v-12h13.7v-2.8h-13.7v-9.2H389v-2.8L367.2,141.9z M71.3,141.9v26.7h10.2c8.8,0,15.9-6,15.9-13.4
		c0-7.4-7.1-13.4-15.9-13.4L71.3,141.9z"/>
	<path class="st0" d="M515.6,94.1v2h5.3v13.8h2.3V96.1h5.3v-2H515.6z M531.4,94.1v15.8h2V97.6h0.1l4.6,12.3h2.4l4.6-12.3h0.1v12.3
		h2.3V94.1h-3.1l-4.8,13.2h-0.1l-4.9-13.2H531.4z"/>
</g>
</svg>
